<svg xmlns="http://www.w3.org/2000/svg" viewBox="0 0 128 128"><defs><style>.cls-1{fill:#333;}.cls-2{fill:#48c4e5;}.cls-3{fill:#96d8e9;}</style></defs><title>Nrwl_128x128</title><g id="Color_on_white_vertical" data-name="Color on white vertical"><g id="LOGO"><path class="cls-1" d="M44.52,69.75V95.06h-6L27.17,81.57V95.06H20V69.75h6L37.39,83.24V69.75Z"/><path class="cls-1" d="M57.37,75.8a10.79,10.79,0,0,1,3.91-.66v6.18a15,15,0,0,0-1.58-.11,5,5,0,0,0-3.51,1.19,4.83,4.83,0,0,0-1.26,3.66v9h-7V75.46H54.6v2.35A6.53,6.53,0,0,1,57.37,75.8Z"/><path class="cls-1" d="M93.7,75.46,88,95.06H81.28l-2.33-9-2.46,9H69.72l-5.66-19.6h6.61l2.66,9.9,2.8-9.9h6l2.69,10,2.8-10Z"/><polygon class="cls-1" points="103.31 69.12 103.31 65.14 96.31 65.14 96.31 67.45 103.31 69.12"/><path class="cls-1" d="M103.31,87.16V70.67l-7-.57V88c0,6.14,4,6.92,7.69,6.92a20.91,20.91,0,0,0,2.1-.11V89.47s-.4,0-.85,0C103.67,89.5,103.31,88.9,103.31,87.16Z"/><g id="whale"><g id="bdy"><path id="bdy-2" data-name="bdy" class="cls-2" d="M48,49.45A22.4,22.4,0,0,0,64.07,71,30.07,30.07,0,0,0,84,69.7a2.72,2.72,0,0,0,1.78-2.55c0-.72-.65-1.2-.9-1.52a1,1,0,0,1-.21-.46h0a10.9,10.9,0,0,0-10.94-10h-.71A9.24,9.24,0,0,1,63.74,46a9.11,9.11,0,0,1,2.66-6.42A12.27,12.27,0,0,1,87,44.76a6.12,6.12,0,0,1-3.64,2.1,6,6,0,0,0-4.92,4.93c2.34,0,3.9,3.14,8.26,3.14a4,4,0,0,0,3.66-2.42A4,4,0,0,0,94,54.93c4.36,0,5.92-3.14,8.26-3.14a6,6,0,0,0-4.92-4.93,5.79,5.79,0,0,1-4.41-3.45h0a22.93,22.93,0,0,0-44.92,6ZM71.57,65.72c.14-.57.61-.33,1.22-.18s1.15.14,1,.71a1.11,1.11,0,0,1-1.36.77A1.1,1.1,0,0,1,71.57,65.72Z"/><path id="tusk" class="cls-2" d="M84.31,68.24a1.18,1.18,0,0,1,1.19-1.18h.11a1.55,1.55,0,0,1,.25,0L114,72.05,85.32,69.4h0A1.19,1.19,0,0,1,84.31,68.24Z"/><g id="right_fin" data-name="right fin"><path class="cls-2" d="M68.92,54.18a3.74,3.74,0,0,1,3.33-2.89v0a3.29,3.29,0,0,0,1.27,2.61,3.27,3.27,0,0,1,1.17,1.25v1.19H68.92Z"/></g></g><g id="highlights"><path class="cls-3" d="M53.13,63.76A22.33,22.33,0,0,1,48,49.45,22.58,22.58,0,0,1,65.28,27.62C57.85,29.68,49.54,36.36,49.54,48c0,14.78,12.49,17.64,18.31,20.3,3.53,1.61,4.8,3,5.25,3.78h-.86A29.75,29.75,0,0,1,64.07,71a26.93,26.93,0,0,1-8-4.29,28.5,28.5,0,0,1-3.35-3.46"/><ellipse class="cls-3" cx="57.78" cy="50.96" rx="0.78" ry="1.1" transform="translate(-10.4 15.08) rotate(-13.66)"/><ellipse class="cls-3" cx="60.9" cy="55.38" rx="1.01" ry="1.44" transform="translate(-21.39 53.23) rotate(-40.79)"/><ellipse class="cls-3" cx="60.55" cy="45.54" rx="1.1" ry="0.78" transform="translate(10.59 102.49) rotate(-85.69)"/><ellipse class="cls-3" cx="57.87" cy="46.96" rx="0.39" ry="0.55" transform="translate(-2.02 2.61) rotate(-2.54)"/><path id="left_fin" data-name="left fin" class="cls-3" d="M63.22,68.4a11.51,11.51,0,0,1-6,2.81c-.32.05-.65.09-1,.11a11.77,11.77,0,0,1-1.88,0h0a13.19,13.19,0,0,0-2.27,0,13.39,13.39,0,0,0-3.78.8h0A4.29,4.29,0,0,1,48,70.7a4.65,4.65,0,0,1,6.93-4.28h0a4.9,4.9,0,0,0,2.61.58,4.66,4.66,0,0,0,2.31-.79s.53-.46,1.79.34C63.5,67.72,63.22,68.4,63.22,68.4Z"/></g></g></g></g></svg>